<svg width="26" height="24" viewBox="0 0 26 24" fill="none" xmlns="http://www.w3.org/2000/svg">
<g clip-path="url(#clip0_4_21)">
<path d="M25.0066 0L14.0219 8.1279L16.0646 3.3379L25.0066 0Z" fill="#E17726"/>
<path d="M0.619093 0.00959778L9.53719 3.3385L11.4768 8.1913L0.619093 0.00959778ZM20.586 17.2858L25.4411 17.3782L23.7443 23.1424L17.82 21.5113L20.586 17.2858ZM5.01389 17.2858L7.76959 21.5113L1.85529 23.1425L0.168793 17.3782L5.01389 17.2858Z" fill="#E27625"/>
<path d="M11.2131 6.9552L11.4115 13.3635L5.4744 13.0934L7.1632 10.5456L7.1846 10.5211L11.2131 6.9552ZM14.3254 6.8837L18.4154 10.5213L18.4366 10.5457L20.1254 13.0935L14.1896 13.3635L14.3254 6.8837ZM7.9435 17.3044L11.1853 19.8303L7.4195 21.6484L7.9435 17.3044ZM17.6571 17.304L18.1702 21.6485L14.4149 19.8301L17.6571 17.304Z" fill="#E27625"/>
<path d="M14.4978 19.5922L18.3085 21.4374L14.7638 23.122L14.8006 22.0086L14.4978 19.5922ZM11.1011 19.593L10.8102 21.9904L10.8341 23.1207L7.2811 21.4374L11.1011 19.593Z" fill="#D5BFB2"/>
<path d="M10.0007 14.1999L10.9965 16.2927L7.6062 15.2995L10.0007 14.1999ZM15.5992 14.2001L18.005 15.2995L14.6036 16.2924L15.5992 14.2001Z" fill="#233447"/>
<path d="M8.20259 17.283L7.65459 21.787L4.71729 17.3815L8.20259 17.283ZM17.3976 17.2831L20.883 17.3815L17.9347 21.7872L17.3976 17.2831ZM20.2112 12.8387L17.6747 15.4238L15.719 14.5301L14.7827 16.4985L14.1689 13.1136L20.2112 12.8387ZM5.38749 12.8387L11.431 13.1136L10.8171 16.4985L9.88059 14.5304L7.93529 15.4239L5.38749 12.8387Z" fill="#CC6228"/>
<path d="M5.21661 12.3082L8.08641 15.2203L8.18581 18.0952L5.21661 12.3082ZM20.3863 12.303L17.4117 18.1003L17.5237 15.2203L20.3863 12.303ZM11.2907 12.4856L11.4062 13.2126L11.6916 15.0237L11.5081 20.5862L10.6406 16.1177L10.6403 16.0715L11.2907 12.4856ZM14.3078 12.4755L14.9599 16.0715L14.9596 16.1177L14.0899 20.5974L14.0555 19.4769L13.9198 14.9907L14.3078 12.4755Z" fill="#E27525"/>
<path d="M17.7788 15.1046L17.6817 17.6024L14.6543 19.9611L14.0423 19.5287L14.7283 15.9952L17.7788 15.1046ZM7.8317 15.1046L10.8716 15.9952L11.5576 19.5287L10.9456 19.9611L7.9181 17.6022L7.8317 15.1046Z" fill="#F5841F"/>
<path d="M6.70181 20.8858L10.575 22.721L10.5586 21.9373L10.8827 21.6528H14.7161L15.0519 21.9363L15.0271 22.7194L18.8758 20.8904L17.003 22.438L14.7385 23.9933H10.8516L8.58861 22.4316L6.70181 20.8858Z" fill="#C0AC9D"/>
<path d="M14.2204 19.3479L14.768 19.7348L15.0889 22.2952L14.6245 21.9031H10.9769L10.5213 22.3031L10.8317 19.735L11.3795 19.3479H14.2204Z" fill="#161616"/>
<path d="M24.2814 0.225006L25.6 4.18071L24.7765 8.18041L25.3629 8.63271L24.5694 9.2381L25.1658 9.69871L24.3761 10.4178L24.8609 10.7689L23.5743 12.2715L18.2973 10.735L18.2516 10.7105L14.4489 7.50271L24.2814 0.225006ZM1.3186 0.225006L11.1512 7.50271L7.3484 10.7105L7.3027 10.735L2.0257 12.2715L0.7391 10.7689L1.2235 10.4181L0.4343 9.69871L1.0295 9.23861L0.2241 8.63151L0.8326 8.17891L0 4.18091L1.3186 0.225006Z" fill="#763E1A"/>
<path d="M18.0392 10.399L23.6305 12.0269L25.447 17.6255H20.6546L17.3526 17.6671L19.754 12.9863L18.0392 10.399ZM7.56079 10.399L5.84569 12.9863L8.24739 17.6671L4.94689 17.6255H0.163086L1.96939 12.027L7.56079 10.399ZM16.3384 3.3112L14.7745 7.5351L14.4426 13.2411L14.3156 15.0296L14.3055 19.5984H11.2944L11.2846 15.0382L11.1572 13.2396L10.8252 7.5351L9.26149 3.3112H16.3384Z" fill="#F5841F"/>
</g>
<defs>
<clipPath id="clip0_4_21">
<rect width="25.6" height="24" fill="white"/>
</clipPath>
</defs>
</svg>
